<?xml version="1.0" encoding="iso-8859-1"?>
<!-- Generator: Adobe Illustrator 18.0.0, SVG Export Plug-In . SVG Version: 6.00 Build 0)  -->
<!DOCTYPE svg PUBLIC "-//W3C//DTD SVG 1.1//EN" "http://www.w3.org/Graphics/SVG/1.1/DTD/svg11.dtd">
<svg version="1.1" id="Capa_1" xmlns="http://www.w3.org/2000/svg" xmlns:xlink="http://www.w3.org/1999/xlink" x="0px" y="0px"
	 viewBox="0 0 458.964 458.964" style="enable-background:new 0 0 458.964 458.964;" xml:space="preserve">
<g>
	<path d="M423.5,78.029H141.167c-19.588,0-33.347,15.959-35.472,35.468l-10.318,73.776H35.465C15.877,187.273,0,203.152,0,222.741
		v93.638c0,19.588,15.877,35.473,35.465,35.473h39.257c-0.534-2.998-0.828-6.077-0.828-9.226c0-28.942,23.55-52.488,52.497-52.488
		c28.942,0,52.488,23.546,52.488,52.488c0,3.148-0.295,6.228-0.828,9.226h54.62h62.435c-0.534-2.998-0.828-6.077-0.828-9.226
		c0-28.942,23.546-52.488,52.487-52.488c28.948,0,52.498,23.546,52.498,52.488c0,3.148-0.294,6.228-0.829,9.226H423.5
		c19.588,0,35.464-15.885,35.464-35.473V113.497C458.964,93.908,443.088,78.029,423.5,78.029z M19.648,297.231v-56.754
		c15.666,0,28.372,12.706,28.372,28.373C48.021,284.523,35.314,297.231,19.648,297.231z M246.275,122.246h68.573v62.902h-68.573
		V122.246z M148.141,122.246h67.627v62.902H139.63L148.141,122.246z M415.338,252.534H126.619l4.26-25.181h284.459V252.534z
		 M415.338,185.148h-68.572v-62.902h68.572V185.148z"/>
	<path d="M126.391,304.325c-21.124,0-38.31,17.182-38.31,38.301c0,21.124,17.186,38.31,38.31,38.31
		c21.119,0,38.301-17.186,38.301-38.31C164.691,321.506,147.51,304.325,126.391,304.325z"/>
	<path d="M346.766,304.325c-21.119,0-38.3,17.182-38.3,38.301c0,21.124,17.181,38.31,38.3,38.31c21.124,0,38.31-17.186,38.31-38.31
		C385.076,321.506,367.89,304.325,346.766,304.325z"/>
</g>
<g>
</g>
<g>
</g>
<g>
</g>
<g>
</g>
<g>
</g>
<g>
</g>
<g>
</g>
<g>
</g>
<g>
</g>
<g>
</g>
<g>
</g>
<g>
</g>
<g>
</g>
<g>
</g>
<g>
</g>
</svg>
