<?xml version="1.0" encoding="iso-8859-1"?>
<!-- Generator: Adobe Illustrator 18.1.1, SVG Export Plug-In . SVG Version: 6.00 Build 0)  -->
<svg version="1.1" id="Capa_1" xmlns="http://www.w3.org/2000/svg" xmlns:xlink="http://www.w3.org/1999/xlink" x="0px" y="0px"
	 viewBox="0 0 24.244 24.244" style="enable-background:new 0 0 24.244 24.244;" xml:space="preserve">
<g>
	<g>
		<polygon style="fill:#030104;" points="12.268,7.568 19.555,7.568 20.365,8.956 12.268,8.956 		"/>
		<path style="fill:#030104;" d="M0.224,16.474c0,1.345,1.089,2.434,2.434,2.434s2.435-1.089,2.435-2.434s-1.089-2.435-2.435-2.435
			C1.312,14.04,0.224,15.13,0.224,16.474z M1.612,16.474c0-0.578,0.469-1.047,1.045-1.047c0.578,0,1.047,0.469,1.047,1.047
			c0,0.577-0.47,1.046-1.047,1.046C2.081,17.52,1.612,17.052,1.612,16.474z"/>
		<path style="fill:#030104;" d="M5.096,14.417c1.461,1.636,0.014,1.912,10.479,1.912c0,0-1.186-0.102,0.07-1.358
			c1.066,0,0.456,0,1.701,0c-0.33,0.414-0.534,0.933-0.534,1.504c0,1.345,1.09,2.434,2.435,2.434s2.435-1.089,2.435-2.434
			c0-0.571-0.203-1.09-0.532-1.504c0.524,0,0.968,0,1.283,0c2.776,0-1.852-5.552-1.852-5.552h-8.328c0,0,5.089,5.552,0,5.552
			c-0.423,0-0.714,0-0.911,0c0,0-7.547-0.643-2.959-8.043L9.13,6.18h1.351V5.717c0,0-2.045-0.859-2.218,0
			c-0.173,0.86-4.542,6.091-4.542,6.091C2.199,11.451,1.016,12.387,0,14.04C1.849,13.469,3.635,12.781,5.096,14.417z M18.201,16.474
			c0-0.578,0.469-1.047,1.046-1.047s1.047,0.469,1.047,1.047c0,0.577-0.47,1.046-1.047,1.046S18.201,17.052,18.201,16.474z"/>
		<rect x="23.55" y="13.388" style="fill:#030104;" width="0.694" height="1.303"/>
		<path style="fill:#030104;" d="M6.817,6.638c-0.249-0.295,0-1.302,0-1.302l1.792,0.298L7.85,6.977L6.817,6.638z"/>
	</g>
</g>
<g>
</g>
<g>
</g>
<g>
</g>
<g>
</g>
<g>
</g>
<g>
</g>
<g>
</g>
<g>
</g>
<g>
</g>
<g>
</g>
<g>
</g>
<g>
</g>
<g>
</g>
<g>
</g>
<g>
</g>
</svg>
