<?xml version="1.0" encoding="iso-8859-1"?>
<!-- Generator: Adobe Illustrator 18.0.0, SVG Export Plug-In . SVG Version: 6.00 Build 0)  -->
<!DOCTYPE svg PUBLIC "-//W3C//DTD SVG 1.1//EN" "http://www.w3.org/Graphics/SVG/1.1/DTD/svg11.dtd">
<svg version="1.1" id="Capa_1" xmlns="http://www.w3.org/2000/svg" xmlns:xlink="http://www.w3.org/1999/xlink" x="0px" y="0px"
	 viewBox="0 0 339.505 339.505" style="enable-background:new 0 0 339.505 339.505;" xml:space="preserve">
<path style="stroke:#000000;stroke-width:0;stroke-linecap:round;stroke-linejoin:round;" d="M331.132,207.394l0.077-165.905
	c0-9.064-7.348-16.412-16.412-16.412H192.026h-37.2c-9.064,0-16.412,7.348-16.412,16.412S145.762,57.9,154.826,57.9h18.392
	l-11.225,82.106H92.459V65.482c0-9.064-7.348-16.412-16.412-16.412H60.729c-9.064,0-16.412,7.348-16.412,16.412
	c0,8.696,6.764,15.813,15.317,16.376v58.148H12.941C5.793,140.006,0,145.8,0,152.946v8.464c0.001,0,0.003,0,0.004,0h57.99
	c7.147,0,12.94,5.793,12.94,12.94c0,7.147-5.793,12.94-12.94,12.94H0.004c-0.001,0-0.003,0-0.004,0v57.178
	c0,7.147,5.793,12.94,12.941,12.94h11.055c-0.156,1.543-0.237,3.107-0.237,4.69c0,25.49,20.738,46.228,46.23,46.228
	c25.491,0,46.229-20.738,46.229-46.228c0-1.583-0.081-3.147-0.237-4.69h79.097c7.355,32.595,36.525,57.02,71.31,57.02
	c40.317,0,73.118-32.801,73.118-73.118C339.505,229.074,336.468,217.538,331.132,207.394z M69.988,282.447
	c-11.221,0-20.35-9.128-20.35-20.348c0-11.22,9.129-20.348,20.35-20.348c11.22,0,20.348,9.128,20.348,20.348
	C90.336,273.319,81.208,282.447,69.988,282.447z M195.123,140.006L206.348,57.9h92.436v82.106H195.123z M266.387,288.548
	c-26.047,0-47.237-21.191-47.237-47.237c0-26.047,21.191-47.237,47.237-47.237c26.047,0,47.237,21.19,47.237,47.237
	C313.624,267.357,292.434,288.548,266.387,288.548z"/>
<g>
</g>
<g>
</g>
<g>
</g>
<g>
</g>
<g>
</g>
<g>
</g>
<g>
</g>
<g>
</g>
<g>
</g>
<g>
</g>
<g>
</g>
<g>
</g>
<g>
</g>
<g>
</g>
<g>
</g>
</svg>
