<svg height="640pt" viewBox="-20 -80 640 640" width="640pt" xmlns="http://www.w3.org/2000/svg"><path d="m190 456h-180c-5.523438 0-10 4.476562-10 10s4.476562 10 10 10h580c5.523438 0 10-4.476562 10-10s-4.476562-10-10-10zm0 0"/><path d="m599.703125 283.597656-30-120c-1.105469-4.457031-5.109375-7.59375-9.703125-7.597656h-163.796875l-17.300781-34.5c-1.675782-3.382812-5.128906-5.515625-8.902344-5.5h-45.800781l42.902343-42.898438c3.898438-3.933593 3.898438-10.269531 0-14.203124l-42.902343-42.898438h185.800781c5.523438 0 10-4.476562 10-10 0-5.523438-4.476562-10-10-10h-420c-5.523438 0-10 4.476562-10 10s4.476562 10 10 10h185.800781l-42.902343 42.898438c-3.898438 3.933593-3.898438 10.269531 0 14.203124l42.902343 42.898438h-45.800781c-3.773438-.015625-7.226562 2.117188-8.902344 5.5l-17.195312 34.5h-163.902344c-4.59375.003906-8.597656 3.140625-9.703125 7.597656l-30 120c-.195313.785156-.296875 1.589844-.296875 2.402344v120c0 5.523438 4.476562 10 10 10h40c0 22.089844 17.910156 40 40 40s40-17.910156 40-40h20c0 22.089844 17.910156 40 40 40s40-17.910156 40-40h140c0 22.089844 17.910156 40 40 40s40-17.910156 40-40h20c0 22.089844 17.910156 40 40 40s40-17.910156 40-40h40c5.523438 0 10-4.476562 10-10v-120c0-.8125-.101562-1.617188-.296875-2.402344zm-509.703125 152.402344c-11.03125-.035156-19.964844-8.96875-20-20h40c-.035156 11.03125-8.96875 19.964844-20 20zm20-150c0 5.523438-4.476562 10-10 10h-70c-3.078125.015625-5.992188-1.386719-7.898438-3.796875-1.867187-2.453125-2.527343-5.613281-1.804687-8.605469l20-80c1.105469-4.457031 5.109375-7.59375 9.703125-7.597656h50c5.523438 0 10 4.476562 10 10zm80 150c-11.03125-.035156-19.964844-8.96875-20-20h40c-.035156 11.03125-8.96875 19.964844-20 20zm40-150c0 5.523438-4.476562 10-10 10h-80c-5.523438 0-10-4.476562-10-10v-80c0-5.523438 4.476562-10 10-10h80c5.523438 0 10 4.476562 10 10zm24.101562-220 45.898438-45.898438 45.898438 45.898438-45.898438 45.898438zm95.898438 330h-100v-190c0-5.523438 4.476562-10 10-10h80c5.523438 0 10 4.476562 10 10zm60 40c-11.03125-.035156-19.964844-8.96875-20-20h40c-.035156 11.03125-8.96875 19.964844-20 20zm60-150c0 5.523438-4.476562 10-10 10h-80c-5.523438 0-10-4.476562-10-10v-80c0-5.523438 4.476562-10 10-10h80c5.523438 0 10 4.476562 10 10zm40 150c-11.03125-.035156-19.964844-8.96875-20-20h40c-.035156 11.03125-8.96875 19.964844-20 20zm67.898438-143.796875c-1.90625 2.410156-4.820313 3.8125-7.898438 3.796875h-70c-5.523438 0-10-4.476562-10-10v-80c0-5.523438 4.476562-10 10-10h50c4.59375.003906 8.597656 3.140625 9.703125 7.597656l20 80c.722656 2.992188.0625 6.152344-1.804687 8.605469zm0 0"/></svg>