<?xml version="1.0" encoding="iso-8859-1"?>
<!-- Generator: Adobe Illustrator 16.0.0, SVG Export Plug-In . SVG Version: 6.00 Build 0)  -->
<!DOCTYPE svg PUBLIC "-//W3C//DTD SVG 1.1//EN" "http://www.w3.org/Graphics/SVG/1.1/DTD/svg11.dtd">
<svg version="1.1" id="Capa_1" xmlns="http://www.w3.org/2000/svg" xmlns:xlink="http://www.w3.org/1999/xlink" x="0px" y="0px"
	 width="111.847px" height="111.847px" viewBox="0 0 111.847 111.847" style="enable-background:new 0 0 111.847 111.847;"
	 xml:space="preserve">
<g>
	<g>
		<path d="M108.626,53.994l1.239-0.943v-5.953l-1.239-0.916v-1.391v-0.928l3.221-2.58l-3.221-2.027
			C86.933,24.417,47.928,27.176,47.928,27.176c-9.219,0-26.801,21.2-26.801,21.2s-10.071,1.687-16.659,5.636
			c-6.584,3.949-3.946,19.757-3.946,19.757h10.205c0-6.544,5.308-11.854,11.854-11.854c6.547,0,11.851,5.311,11.851,11.854h48.894
			c0-6.544,5.308-11.854,11.854-11.854c6.543,0,11.848,5.311,11.848,11.854h1.598v-3.604l1.979-2.167v-7.888l-1.979-2.632V53.994z
			 M9.771,59.686H4.304V56.23h5.467V59.686z M62.523,47.052H29.552c0,0,11.735-14.903,17.318-14.903c5.588,0,15.649,0,15.649,0
			v14.903H62.523z M66.924,47.102V31.787c0,0,22.792,0.786,31.241,15.314H66.924z"/>
		<path d="M22.417,62.661c-6.126,0-11.105,4.979-11.105,11.101c0,6.13,4.982,11.112,11.105,11.112
			c6.122,0,11.108-4.982,11.108-11.112C33.526,67.639,28.54,62.661,22.417,62.661z M22.417,82.399c-4.759,0-8.631-3.87-8.631-8.638
			c0-4.753,3.872-8.623,8.631-8.623c4.758,0,8.634,3.87,8.634,8.623C31.048,78.525,27.176,82.399,22.417,82.399z"/>
		<path d="M94.962,62.661c-6.126,0-11.105,4.979-11.105,11.101c0,0.343,0.068,0.661,0.103,0.986H35.17v3.456h48.796V74.85
			c0.559,5.612,5.246,10.021,10.996,10.021c6.122,0,11.104-4.983,11.104-11.112C106.067,67.639,101.084,62.661,94.962,62.661z
			 M94.962,82.399c-4.761,0-8.631-3.87-8.631-8.638c0-4.753,3.867-8.623,8.631-8.623c4.76,0,8.63,3.87,8.63,8.623
			C103.592,78.525,99.722,82.399,94.962,82.399z"/>
	</g>
</g>
<g>
</g>
<g>
</g>
<g>
</g>
<g>
</g>
<g>
</g>
<g>
</g>
<g>
</g>
<g>
</g>
<g>
</g>
<g>
</g>
<g>
</g>
<g>
</g>
<g>
</g>
<g>
</g>
<g>
</g>
</svg>
